<mxfile host="Electron" modified="2023-05-31T21:07:36.509Z" agent="Mozilla/5.0 (X11; Linux x86_64) AppleWebKit/537.36 (KHTML, like Gecko) draw.io/21.2.8 Chrome/106.0.5249.199 Electron/21.4.4 Safari/537.36" etag="ZEPj089QlqtaQ2lf--6P" version="21.2.8" type="device">
  <diagram name="Page-1" id="t0CIgs0ZvmwOI1I7_DHn">
    <mxGraphModel dx="1674" dy="832" grid="1" gridSize="10" guides="1" tooltips="1" connect="1" arrows="1" fold="1" page="1" pageScale="1" pageWidth="850" pageHeight="1100" math="0" shadow="0">
      <root>
        <mxCell id="0" />
        <mxCell id="1" parent="0" />
      </root>
    </mxGraphModel>
  </diagram>
</mxfile>
